<?xml version="1.0" standalone="no"?>
<!DOCTYPE svg PUBLIC "-//W3C//DTD SVG 20010904//EN"
 "http://www.w3.org/TR/2001/REC-SVG-20010904/DTD/svg10.dtd">
<svg version="1.0" xmlns="http://www.w3.org/2000/svg"
 width="192.000000pt" height="192.000000pt" viewBox="0 0 192.000000 192.000000"
 preserveAspectRatio="xMidYMid meet">
<metadata>
Created by potrace 1.10, written by Peter Selinger 2001-2011
</metadata>
<g transform="translate(0.000000,192.000000) scale(0.100000,-0.100000)"
fill="#e8265b" stroke="none">
<path d="M670 1680 l0 -240 245 0 245 0 0 160 0 160 -80 0 -80 0 0 80 c0 64
-3 80 -15 80 -12 0 -15 -15 -15 -73 0 -99 13 -117 85 -117 43 0 56 -4 65 -19
11 -21 14 -199 4 -225 -5 -14 -32 -16 -199 -16 -106 0 -200 3 -209 6 -14 5
-16 35 -16 225 0 188 -2 219 -15 219 -13 0 -15 -33 -15 -240z"/>
<path d="M220 960 l0 -240 250 0 250 0 0 240 0 240 -250 0 -250 0 0 -240z
m458 198 c17 -17 17 -379 0 -396 -17 -17 -399 -17 -416 0 -17 17 -17 379 0
396 17 17 399 17 416 0z"/>
<path d="M960 955 l0 -235 380 0 380 0 0 235 0 235 -130 0 -130 0 0 -115 0
-115 -125 0 -125 0 0 115 0 115 -125 0 -125 0 0 -235z m208 193 c7 -7 12 -43
12 -93 0 -123 3 -125 155 -125 152 0 155 3 155 121 0 112 -2 109 96 109 72 0
85 -3 94 -19 15 -29 13 -364 -2 -379 -17 -17 -659 -17 -676 0 -13 13 -18 351
-6 382 5 13 22 16 83 16 47 0 82 -5 89 -12z"/>
<path d="M700 235 c0 -202 2 -235 15 -235 13 0 15 30 15 208 0 148 3 211 12
220 7 7 40 12 78 12 38 0 71 -5 78 -12 8 -8 12 -45 12 -100 0 -121 8 -128 133
-128 59 0 97 -4 105 -12 8 -8 12 -45 12 -100 0 -72 3 -88 15 -88 12 0 15 19
15 115 l0 115 -125 0 -125 0 0 120 0 120 -120 0 -120 0 0 -235z"/>
</g>
</svg>
